# xmcd
#
# Track frame offsets:
#	150
#	11625
#	23750
#	35425
#	49850
#	58450
#	72775
#	82125
#	94100
#	104400
#	113075
#	125850
#	134475
#	151200
#	159725
#	178450
#	192800
#	210075
#
# Disc length: 3007 seconds
#
# Revision: 1
# Processed by: cddbd v1.5.2PL0 Copyright (c) Steve Scherf et al.
# Submitted via: EasyCDDAExtractor 9.1.3.1
#
DISCID=020bbd12
DTITLE=Eddie Pennington - Atonathum' (A Ton Of Thum')
DYEAR=1900
DGENRE=Country
TTITLE0=San Antonio Rose
TTITLE1=Home
TTITLE2=Time Changes Everything
TTITLE3=All By Myself In The Morning
TTITLE4=Somewhere My Love
TTITLE5=I Don't Love Nobody
TTITLE6=Shufflin' Blues
TTITLE7=At Sundown
TTITLE8=Chicken reel
TTITLE9=It's Been A Long, Long Time
TTITLE10=Puttin' On The Ritz
TTITLE11=Rockabye Rag
TTITLE12=September In The Rain
TTITLE13=Tiger Rag
TTITLE14=That Fat Gal Of Mine (Vocal)
TTITLE15=Guitar Rag (Vocal)
TTITLE16=Preacher And The Bear (Vocal)
TTITLE17=Coal Mine Towns (Vocal)
EXTD=
EXTT0=
EXTT1=
EXTT2=
EXTT3=
EXTT4=
EXTT5=
EXTT6=
EXTT7=
EXTT8=
EXTT9=
EXTT10=
EXTT11=
EXTT12=
EXTT13=
EXTT14=
EXTT15=
EXTT16=
EXTT17=
PLAYORDER=
